<?xml version="1.0" encoding="UTF-8"?> <!-- Generator: Adobe Illustrator 19.0.0, SVG Export Plug-In . SVG Version: 6.00 Build 0) --> <svg xmlns="http://www.w3.org/2000/svg" xmlns:xlink="http://www.w3.org/1999/xlink" x="0px" y="0px" viewBox="0 0 324.1 189.6" style="enable-background:new 0 0 324.1 189.6;" xml:space="preserve"> <style type="text/css"> .st0{fill:none;stroke:#202E54;stroke-width:1.5;stroke-miterlimit:10;} .st1{fill:#FFFFFF;} .st2{fill:#202E54;stroke:#202E54;stroke-width:1.5;stroke-miterlimit:10;} </style> <g id="Background"> </g> <g id="Layer_1"> <polyline class="st0" points="49.2,146.6 115.7,67.8 169.7,123.8 259.2,46.8 "></polyline> <path class="st0" d="M294.9,173.4H29.2c-6.2,0-11.3-5.1-11.3-11.3V22.6c0-6.2,5.1-11.3,11.3-11.3h265.6c6.2,0,11.3,5.1,11.3,11.3 v139.5C306.2,168.3,301.1,173.4,294.9,173.4z"></path> <path class="st1" d="M63,142.4c0,5.1-4.1,9.2-9.2,9.2c-5.1,0-9.2-4.1-9.2-9.2c0-5.1,4.1-9.2,9.2-9.2C58.9,133.3,63,137.4,63,142.4"></path> <circle class="st2" cx="53.9" cy="142.4" r="9.2"></circle> <path class="st1" d="M125.2,69.6c0,5.1-4.1,9.2-9.2,9.2c-5.1,0-9.2-4.1-9.2-9.2c0-5.1,4.1-9.2,9.2-9.2 C121.1,60.4,125.2,64.5,125.2,69.6"></path> <circle class="st2" cx="116.1" cy="69.6" r="9.2"></circle> <path class="st1" d="M178.5,123c0,5.1-4.1,9.2-9.2,9.2c-5.1,0-9.2-4.1-9.2-9.2c0-5.1,4.1-9.2,9.2-9.2 C174.4,113.9,178.5,118,178.5,123"></path> <circle class="st2" cx="169.4" cy="123" r="9.2"></circle> <path class="st1" d="M274.5,47.8c0,8.6-7,15.6-15.6,15.6c-8.6,0-15.6-7-15.6-15.6c0-8.6,7-15.6,15.6-15.6 C267.5,32.2,274.5,39.2,274.5,47.8"></path> <circle class="st2" cx="258.9" cy="47.8" r="15.6"></circle> </g> </svg> 