<?xml version="1.0" encoding="UTF-8"?> <!-- Generator: Adobe Illustrator 19.0.0, SVG Export Plug-In . SVG Version: 6.00 Build 0) --> <svg xmlns="http://www.w3.org/2000/svg" xmlns:xlink="http://www.w3.org/1999/xlink" x="0px" y="0px" viewBox="0 0 285 252.8" style="enable-background:new 0 0 285 252.8;" xml:space="preserve"> <style type="text/css"> .st0{fill:none;stroke:#F4F4F6;stroke-width:1.5;stroke-miterlimit:10;} .st1{fill:none;stroke:#F4F4F6;stroke-width:1.3;stroke-miterlimit:10;} </style> <g id="background"> </g> <g id="Layer_1"> <path class="st0" d="M9.7,234.5V65.1c0-6.3,5.1-11.4,11.4-11.4h241.1c6.3,0,11.4,5.1,11.4,11.4v169.4c0,6.3-5.1,11.4-11.4,11.4 H21.2C14.9,245.9,9.7,240.8,9.7,234.5z"></path> <circle class="st0" cx="176.8" cy="150.9" r="73.2"></circle> <path class="st0" d="M161.8,173.3c2.1,2.4,6.2,4.5,9.7,5.4c8,2,16-1.8,17.7-8.7c1.7-6.8-2.5-13.7-11.4-16.1l-2.4-0.7 c-9.4-2.5-13.2-9.3-11.4-16.1c1.7-6.8,9.7-10.7,17.7-8.7c3.5,0.9,6.4,2.7,8.5,5.1"></path> <line class="st0" x1="176" y1="121.7" x2="176" y2="185.9"></line> <line class="st0" x1="36.4" y1="53.7" x2="257" y2="14.2"></line> <g> <g> <circle class="st1" cx="48" cy="110" r="3.6"></circle> <circle class="st1" cx="61.5" cy="107.8" r="3.6"></circle> <polyline class="st1" points="51.6,110 51.6,96.4 65.1,94.2 65.1,107.8 "></polyline> </g> <g> <circle class="st0" cx="55.1" cy="104.1" r="22.6"></circle> </g> </g> </g> </svg> 