<?xml version="1.0" encoding="UTF-8"?> <!-- Generator: Adobe Illustrator 19.0.0, SVG Export Plug-In . SVG Version: 6.00 Build 0) --> <svg xmlns="http://www.w3.org/2000/svg" xmlns:xlink="http://www.w3.org/1999/xlink" x="0px" y="0px" viewBox="0 0 329.6 348" style="enable-background:new 0 0 329.6 348;" xml:space="preserve"> <style type="text/css"> .st0{fill:none;stroke:#202E54;stroke-width:1.5;stroke-miterlimit:10;} .st1{fill:#202E54;} </style> <g id="background"> </g> <g id="Layer_1"> <g> <circle class="st0" cx="120.8" cy="70" r="9.2"></circle> <circle class="st0" cx="207.3" cy="70" r="9.2"></circle> <circle class="st0" cx="222.7" cy="127.2" r="9.2"></circle> <circle class="st0" cx="105.5" cy="127.2" r="9.2"></circle> <circle class="st0" cx="118.8" cy="183.6" r="9.2"></circle> <circle class="st0" cx="209.9" cy="183.6" r="9.2"></circle> <g> <circle class="st0" cx="164.3" cy="127.2" r="113.4"></circle> <line class="st0" x1="231.9" y1="127.2" x2="277.7" y2="127.2"></line> <line class="st0" x1="114.7" y1="127.2" x2="213.5" y2="127.2"></line> <line class="st0" x1="51" y1="127.2" x2="96.4" y2="127.2"></line> <line class="st0" x1="216.5" y1="70.2" x2="262.4" y2="70.2"></line> <line class="st0" x1="129.9" y1="70.2" x2="198.1" y2="70.2"></line> <line class="st0" x1="65.5" y1="70.2" x2="111.6" y2="70.2"></line> <line class="st0" x1="219.1" y1="183.5" x2="262.4" y2="183.5"></line> <line class="st0" x1="127.9" y1="183.5" x2="200.8" y2="183.5"></line> <line class="st0" x1="65.5" y1="183.5" x2="109.6" y2="183.5"></line> <path class="st0" d="M206.2,192c-9.3,16-22.8,32.3-41.9,48.6"></path> <path class="st0" d="M223.1,136.4c-0.5,12.6-3.2,25.8-8.7,39.2"></path> <path class="st0" d="M211.3,78.5c5.3,12,9.4,25.4,11,39.6"></path> <path class="st0" d="M164.3,13.8c0,0,21.6,18.5,38.6,48.1"></path> <line class="st0" x1="164.3" y1="13.8" x2="164.3" y2="240.6"></line> <path class="st0" d="M122.4,192c9.3,16,22.8,32.3,41.9,48.6"></path> <path class="st0" d="M105.6,136.3c0.5,12.6,3.2,25.8,8.7,39.2"></path> <path class="st0" d="M117.3,78.5c-5.2,11.9-9.3,25-11,39"></path> <path class="st0" d="M164.3,13.8c0,0-21.7,18.7-38.8,48.4"></path> <line class="st0" x1="164.2" y1="240.8" x2="164.2" y2="290.1"></line> <line class="st0" x1="20.7" y1="313.4" x2="95.4" y2="313.4"></line> <line class="st0" x1="234.2" y1="313.4" x2="308.9" y2="313.4"></line> <polyline class="st0" points="103.4,336.3 95.1,336.3 95.1,291 103.4,291 "></polyline> <polyline class="st0" points="225.9,291 234.2,291 234.2,336.3 225.9,336.3 "></polyline> <g> <path class="st1" d="M104.9,327.2h-1.5v-19.8c0-4.3,3.5-7.8,7.8-7.8H131v1.5h-19.8c-3.5,0-6.4,2.8-6.4,6.4V327.2z"></path> <path class="st1" d="M155,327.2h-12.2c-4.3,0-7.8-3.5-7.8-7.8v-19.8h1.5v19.8c0,3.5,2.8,6.4,6.4,6.4H155c3.5,0,6.4-2.8,6.4-6.4 v-19.8h1.5v19.8C162.8,323.6,159.3,327.2,155,327.2z"></path> <path class="st1" d="M194.2,327.2h-19.8c-4.3,0-7.8-3.5-7.8-7.8v-11.9c0-4.3,3.5-7.8,7.8-7.8h19.8v1.5h-19.8 c-3.5,0-6.4,2.8-6.4,6.4v11.9c0,3.5,2.8,6.4,6.4,6.4h19.8V327.2z"></path> <path class="st1" d="M225.9,327.2h-1.5v-19.8c0-3.5-2.8-6.4-6.4-6.4h-12.2c-3.5,0-6.4,2.8-6.4,6.4v19.8H198v-19.8 c0-4.3,3.5-7.8,7.8-7.8h12.2c4.3,0,7.8,3.5,7.8,7.8V327.2z"></path> <path class="st1" d="M151.4,305.7h-5.1c-2.3,0-4.1-1.8-4.1-4.1v-2h1.5v2c0,1.4,1.2,2.6,2.6,2.6h5.1c1.4,0,2.6-1.2,2.6-2.6v-2 h1.5v2C155.5,303.8,153.6,305.7,151.4,305.7z"></path> <path class="st1" d="M114.8,310.7h5.1c2.3,0,4.1,1.8,4.1,4.1v2h-1.5v-2c0-1.4-1.2-2.6-2.6-2.6h-5.1c-1.4,0-2.6,1.2-2.6,2.6v2 h-1.5v-2C110.7,312.5,112.6,310.7,114.8,310.7z"></path> <path class="st1" d="M185.1,310.7h5.1c2.3,0,4.1,1.8,4.1,4.1v2h-1.5v-2c0-1.4-1.2-2.6-2.6-2.6h-5.1c-1.4,0-2.6,1.2-2.6,2.6v2 H181v-2C181,312.5,182.8,310.7,185.1,310.7z"></path> <path class="st1" d="M209.4,321h5.1c2.3,0,4.1,1.8,4.1,4.1v2h-1.5v-2c0-1.4-1.2-2.6-2.6-2.6h-5.1c-1.4,0-2.6,1.2-2.6,2.6v2h-1.5 v-2C205.3,322.9,207.2,321,209.4,321z"></path> </g> </g> </g> </g> </svg> 