<?xml version="1.0" encoding="UTF-8"?> <!-- Generator: Adobe Illustrator 19.0.0, SVG Export Plug-In . SVG Version: 6.00 Build 0) --> <svg xmlns="http://www.w3.org/2000/svg" xmlns:xlink="http://www.w3.org/1999/xlink" id="Layer_1" x="0px" y="0px" viewBox="0 0 238.6 292.3" style="enable-background:new 0 0 238.6 292.3;" xml:space="preserve"> <style type="text/css"> .st0{fill:none;stroke:#F4F4F6;stroke-width:1.5;stroke-miterlimit:10;} .st1{fill:none;stroke:#F4F4F6;stroke-width:1.3;stroke-miterlimit:10;} .st2{fill:#F4F4F6;stroke:#F4F4F6;stroke-width:0.3;stroke-miterlimit:10;} </style> <circle class="st0" cx="59.9" cy="185.3" r="22.6"></circle> <circle class="st0" cx="119.3" cy="185.3" r="22.6"></circle> <circle class="st0" cx="61.6" cy="132.3" r="22.6"></circle> <circle class="st0" cx="119.3" cy="132.3" r="22.6"></circle> <circle class="st0" cx="59.9" cy="238.3" r="22.6"></circle> <circle class="st0" cx="119.3" cy="238.3" r="22.6"></circle> <path class="st0" d="M204,280.3H34.6c-6.3,0-11.4-5.1-11.4-11.4V27.8c0-6.3,5.1-11.4,11.4-11.4H204c6.3,0,11.4,5.1,11.4,11.4v241.1 C215.4,275.2,210.3,280.3,204,280.3z"></path> <path class="st0" d="M188.9,87.8h-136c-6.8,0-12.3-5.5-12.3-12.3V49.4c0-6.8,5.5-12.3,12.3-12.3h136c6.8,0,12.3,5.5,12.3,12.3v26.2 C201.3,82.3,195.7,87.8,188.9,87.8z"></path> <line class="st0" x1="161.4" y1="76" x2="189.3" y2="76"></line> <g> <circle class="st1" cx="169.7" cy="138.3" r="3.6"></circle> <circle class="st1" cx="183.2" cy="136.1" r="3.6"></circle> <polyline class="st1" points="173.3,138.3 173.3,124.7 186.8,122.5 186.8,136.1 "></polyline> </g> <g> <circle class="st0" cx="176.8" cy="132.4" r="22.6"></circle> </g> <g> <g> <path class="st2" d="M165.9,245.5l4.7-12.1h1.1l-4.7,12.1H165.9z"></path> <path class="st2" d="M173.3,245.5l4.7-12.1h1.1l-4.7,12.1H173.3z"></path> <path class="st2" d="M180.7,245.5l4.7-12.1h1.1l-4.7,12.1H180.7z"></path> </g> </g> <g> <g> <path class="st1" d="M172.9,191.8c0.6,0.7,1.9,1.4,3,1.7c2.5,0.6,4.9-0.6,5.5-2.7c0.5-2.1-0.8-4.2-3.5-5l-0.7-0.2 c-2.9-0.8-4.1-2.9-3.5-5c0.5-2.1,3-3.3,5.5-2.7c1.1,0.3,2,0.8,2.6,1.6"></path> <line class="st1" x1="177.3" y1="175.8" x2="177.3" y2="195.7"></line> </g> <g> <circle class="st0" cx="176.9" cy="185.5" r="22.6"></circle> </g> </g> </svg> 